<mxfile host="app.diagrams.net" modified="2020-03-17T22:20:30.610Z" agent="Mozilla/5.0 (Macintosh; Intel Mac OS X 10_15_3) AppleWebKit/537.36 (KHTML, like Gecko) Chrome/80.0.3987.132 Safari/537.36" etag="Cw4XfHWL3th1kIOZvV-9" version="12.8.6" type="github" pages="2">
  <diagram id="n-F0v8olKahUGcoaK9ZK" name="cost-defintion">
    <mxGraphModel dx="713" dy="421" grid="1" gridSize="10" guides="1" tooltips="1" connect="1" arrows="1" fold="1" page="1" pageScale="1" pageWidth="850" pageHeight="1100" math="0" shadow="0">
      <root>
        <mxCell id="0" />
        <mxCell id="1" parent="0" />
        <mxCell id="WGFTEza84kzCz2_i6lYA-45" value="" style="whiteSpace=wrap;html=1;aspect=fixed;" vertex="1" parent="1">
          <mxGeometry x="440" y="120" width="40" height="40" as="geometry" />
        </mxCell>
        <mxCell id="WGFTEza84kzCz2_i6lYA-47" value="" style="whiteSpace=wrap;html=1;aspect=fixed;" vertex="1" parent="1">
          <mxGeometry x="560" y="120" width="40" height="40" as="geometry" />
        </mxCell>
        <mxCell id="WGFTEza84kzCz2_i6lYA-1" value="" style="whiteSpace=wrap;html=1;aspect=fixed;fillColor=#dae8fc;strokeColor=#6c8ebf;" vertex="1" parent="1">
          <mxGeometry x="80" y="120" width="40" height="40" as="geometry" />
        </mxCell>
        <mxCell id="WGFTEza84kzCz2_i6lYA-2" value="" style="whiteSpace=wrap;html=1;aspect=fixed;fillColor=#dae8fc;strokeColor=#6c8ebf;" vertex="1" parent="1">
          <mxGeometry x="120" y="120" width="40" height="40" as="geometry" />
        </mxCell>
        <mxCell id="WGFTEza84kzCz2_i6lYA-3" value="" style="whiteSpace=wrap;html=1;aspect=fixed;" vertex="1" parent="1">
          <mxGeometry x="200" y="120" width="40" height="40" as="geometry" />
        </mxCell>
        <mxCell id="WGFTEza84kzCz2_i6lYA-4" value="" style="whiteSpace=wrap;html=1;aspect=fixed;" vertex="1" parent="1">
          <mxGeometry x="240" y="120" width="40" height="40" as="geometry" />
        </mxCell>
        <mxCell id="WGFTEza84kzCz2_i6lYA-7" value="" style="whiteSpace=wrap;html=1;aspect=fixed;" vertex="1" parent="1">
          <mxGeometry x="160" y="120" width="40" height="40" as="geometry" />
        </mxCell>
        <mxCell id="WGFTEza84kzCz2_i6lYA-8" value="" style="whiteSpace=wrap;html=1;aspect=fixed;" vertex="1" parent="1">
          <mxGeometry x="280" y="120" width="40" height="40" as="geometry" />
        </mxCell>
        <mxCell id="WGFTEza84kzCz2_i6lYA-9" value="" style="whiteSpace=wrap;html=1;aspect=fixed;" vertex="1" parent="1">
          <mxGeometry x="320" y="120" width="40" height="40" as="geometry" />
        </mxCell>
        <mxCell id="WGFTEza84kzCz2_i6lYA-10" value="" style="whiteSpace=wrap;html=1;aspect=fixed;fillColor=#dae8fc;strokeColor=#6c8ebf;" vertex="1" parent="1">
          <mxGeometry x="80" y="160" width="40" height="40" as="geometry" />
        </mxCell>
        <mxCell id="WGFTEza84kzCz2_i6lYA-11" value="" style="whiteSpace=wrap;html=1;aspect=fixed;fillColor=#dae8fc;strokeColor=#6c8ebf;" vertex="1" parent="1">
          <mxGeometry x="120" y="160" width="40" height="40" as="geometry" />
        </mxCell>
        <mxCell id="WGFTEza84kzCz2_i6lYA-12" value="" style="whiteSpace=wrap;html=1;aspect=fixed;" vertex="1" parent="1">
          <mxGeometry x="200" y="160" width="40" height="40" as="geometry" />
        </mxCell>
        <mxCell id="WGFTEza84kzCz2_i6lYA-13" value="" style="whiteSpace=wrap;html=1;aspect=fixed;fillColor=#dae8fc;strokeColor=#6c8ebf;" vertex="1" parent="1">
          <mxGeometry x="240" y="160" width="40" height="40" as="geometry" />
        </mxCell>
        <mxCell id="WGFTEza84kzCz2_i6lYA-14" value="" style="whiteSpace=wrap;html=1;aspect=fixed;" vertex="1" parent="1">
          <mxGeometry x="160" y="160" width="40" height="40" as="geometry" />
        </mxCell>
        <mxCell id="WGFTEza84kzCz2_i6lYA-15" value="" style="whiteSpace=wrap;html=1;aspect=fixed;fillColor=#dae8fc;strokeColor=#6c8ebf;" vertex="1" parent="1">
          <mxGeometry x="280" y="160" width="40" height="40" as="geometry" />
        </mxCell>
        <mxCell id="WGFTEza84kzCz2_i6lYA-16" value="" style="whiteSpace=wrap;html=1;aspect=fixed;" vertex="1" parent="1">
          <mxGeometry x="320" y="160" width="40" height="40" as="geometry" />
        </mxCell>
        <mxCell id="WGFTEza84kzCz2_i6lYA-17" value="G" style="whiteSpace=wrap;html=1;aspect=fixed;fillColor=#f8cecc;strokeColor=#b85450;" vertex="1" parent="1">
          <mxGeometry x="80" y="200" width="40" height="40" as="geometry" />
        </mxCell>
        <mxCell id="WGFTEza84kzCz2_i6lYA-18" value="" style="whiteSpace=wrap;html=1;aspect=fixed;" vertex="1" parent="1">
          <mxGeometry x="120" y="200" width="40" height="40" as="geometry" />
        </mxCell>
        <mxCell id="WGFTEza84kzCz2_i6lYA-19" value="" style="whiteSpace=wrap;html=1;aspect=fixed;" vertex="1" parent="1">
          <mxGeometry x="200" y="200" width="40" height="40" as="geometry" />
        </mxCell>
        <mxCell id="WGFTEza84kzCz2_i6lYA-20" value="" style="whiteSpace=wrap;html=1;aspect=fixed;" vertex="1" parent="1">
          <mxGeometry x="240" y="200" width="40" height="40" as="geometry" />
        </mxCell>
        <mxCell id="WGFTEza84kzCz2_i6lYA-21" value="" style="whiteSpace=wrap;html=1;aspect=fixed;" vertex="1" parent="1">
          <mxGeometry x="160" y="200" width="40" height="40" as="geometry" />
        </mxCell>
        <mxCell id="WGFTEza84kzCz2_i6lYA-22" value="" style="whiteSpace=wrap;html=1;aspect=fixed;" vertex="1" parent="1">
          <mxGeometry x="280" y="200" width="40" height="40" as="geometry" />
        </mxCell>
        <mxCell id="WGFTEza84kzCz2_i6lYA-23" value="" style="whiteSpace=wrap;html=1;aspect=fixed;" vertex="1" parent="1">
          <mxGeometry x="320" y="200" width="40" height="40" as="geometry" />
        </mxCell>
        <mxCell id="WGFTEza84kzCz2_i6lYA-24" value="" style="whiteSpace=wrap;html=1;aspect=fixed;fillColor=#dae8fc;strokeColor=#6c8ebf;" vertex="1" parent="1">
          <mxGeometry x="80" y="240" width="40" height="40" as="geometry" />
        </mxCell>
        <mxCell id="WGFTEza84kzCz2_i6lYA-25" value="" style="whiteSpace=wrap;html=1;aspect=fixed;fillColor=#dae8fc;strokeColor=#6c8ebf;" vertex="1" parent="1">
          <mxGeometry x="120" y="240" width="40" height="40" as="geometry" />
        </mxCell>
        <mxCell id="WGFTEza84kzCz2_i6lYA-26" value="" style="whiteSpace=wrap;html=1;aspect=fixed;" vertex="1" parent="1">
          <mxGeometry x="200" y="240" width="40" height="40" as="geometry" />
        </mxCell>
        <mxCell id="WGFTEza84kzCz2_i6lYA-27" value="" style="whiteSpace=wrap;html=1;aspect=fixed;fillColor=#dae8fc;strokeColor=#6c8ebf;" vertex="1" parent="1">
          <mxGeometry x="240" y="240" width="40" height="40" as="geometry" />
        </mxCell>
        <mxCell id="WGFTEza84kzCz2_i6lYA-28" value="" style="whiteSpace=wrap;html=1;aspect=fixed;fillColor=#dae8fc;strokeColor=#6c8ebf;" vertex="1" parent="1">
          <mxGeometry x="160" y="240" width="40" height="40" as="geometry" />
        </mxCell>
        <mxCell id="WGFTEza84kzCz2_i6lYA-29" value="" style="whiteSpace=wrap;html=1;aspect=fixed;fillColor=#dae8fc;strokeColor=#6c8ebf;" vertex="1" parent="1">
          <mxGeometry x="280" y="240" width="40" height="40" as="geometry" />
        </mxCell>
        <mxCell id="WGFTEza84kzCz2_i6lYA-30" value="" style="whiteSpace=wrap;html=1;aspect=fixed;fillColor=#dae8fc;strokeColor=#6c8ebf;" vertex="1" parent="1">
          <mxGeometry x="320" y="240" width="40" height="40" as="geometry" />
        </mxCell>
        <mxCell id="WGFTEza84kzCz2_i6lYA-31" value="" style="whiteSpace=wrap;html=1;aspect=fixed;fillColor=#dae8fc;strokeColor=#6c8ebf;" vertex="1" parent="1">
          <mxGeometry x="80" y="280" width="40" height="40" as="geometry" />
        </mxCell>
        <mxCell id="WGFTEza84kzCz2_i6lYA-32" value="" style="whiteSpace=wrap;html=1;aspect=fixed;fillColor=#dae8fc;strokeColor=#6c8ebf;" vertex="1" parent="1">
          <mxGeometry x="120" y="280" width="40" height="40" as="geometry" />
        </mxCell>
        <mxCell id="WGFTEza84kzCz2_i6lYA-33" value="" style="whiteSpace=wrap;html=1;aspect=fixed;" vertex="1" parent="1">
          <mxGeometry x="200" y="280" width="40" height="40" as="geometry" />
        </mxCell>
        <mxCell id="WGFTEza84kzCz2_i6lYA-34" value="" style="whiteSpace=wrap;html=1;aspect=fixed;fillColor=#dae8fc;strokeColor=#6c8ebf;" vertex="1" parent="1">
          <mxGeometry x="240" y="280" width="40" height="40" as="geometry" />
        </mxCell>
        <mxCell id="WGFTEza84kzCz2_i6lYA-35" value="" style="whiteSpace=wrap;html=1;aspect=fixed;fillColor=#dae8fc;strokeColor=#6c8ebf;" vertex="1" parent="1">
          <mxGeometry x="160" y="280" width="40" height="40" as="geometry" />
        </mxCell>
        <mxCell id="WGFTEza84kzCz2_i6lYA-36" value="" style="whiteSpace=wrap;html=1;aspect=fixed;fillColor=#dae8fc;strokeColor=#6c8ebf;" vertex="1" parent="1">
          <mxGeometry x="280" y="280" width="40" height="40" as="geometry" />
        </mxCell>
        <mxCell id="WGFTEza84kzCz2_i6lYA-37" value="" style="whiteSpace=wrap;html=1;aspect=fixed;fillColor=#dae8fc;strokeColor=#6c8ebf;" vertex="1" parent="1">
          <mxGeometry x="320" y="280" width="40" height="40" as="geometry" />
        </mxCell>
        <mxCell id="WGFTEza84kzCz2_i6lYA-38" value="" style="whiteSpace=wrap;html=1;aspect=fixed;fillColor=#dae8fc;strokeColor=#6c8ebf;" vertex="1" parent="1">
          <mxGeometry x="80" y="320" width="40" height="40" as="geometry" />
        </mxCell>
        <mxCell id="WGFTEza84kzCz2_i6lYA-39" value="" style="whiteSpace=wrap;html=1;aspect=fixed;fillColor=#dae8fc;strokeColor=#6c8ebf;" vertex="1" parent="1">
          <mxGeometry x="120" y="320" width="40" height="40" as="geometry" />
        </mxCell>
        <mxCell id="WGFTEza84kzCz2_i6lYA-40" value="S" style="whiteSpace=wrap;html=1;aspect=fixed;fillColor=#d5e8d4;strokeColor=#82b366;" vertex="1" parent="1">
          <mxGeometry x="200" y="320" width="40" height="40" as="geometry" />
        </mxCell>
        <mxCell id="WGFTEza84kzCz2_i6lYA-41" value="" style="whiteSpace=wrap;html=1;aspect=fixed;fillColor=#dae8fc;strokeColor=#6c8ebf;" vertex="1" parent="1">
          <mxGeometry x="240" y="320" width="40" height="40" as="geometry" />
        </mxCell>
        <mxCell id="WGFTEza84kzCz2_i6lYA-42" value="" style="whiteSpace=wrap;html=1;aspect=fixed;fillColor=#dae8fc;strokeColor=#6c8ebf;" vertex="1" parent="1">
          <mxGeometry x="160" y="320" width="40" height="40" as="geometry" />
        </mxCell>
        <mxCell id="WGFTEza84kzCz2_i6lYA-43" value="" style="whiteSpace=wrap;html=1;aspect=fixed;fillColor=#dae8fc;strokeColor=#6c8ebf;" vertex="1" parent="1">
          <mxGeometry x="280" y="320" width="40" height="40" as="geometry" />
        </mxCell>
        <mxCell id="WGFTEza84kzCz2_i6lYA-44" value="" style="whiteSpace=wrap;html=1;aspect=fixed;fillColor=#dae8fc;strokeColor=#6c8ebf;" vertex="1" parent="1">
          <mxGeometry x="320" y="320" width="40" height="40" as="geometry" />
        </mxCell>
        <mxCell id="WGFTEza84kzCz2_i6lYA-46" value="" style="whiteSpace=wrap;html=1;aspect=fixed;" vertex="1" parent="1">
          <mxGeometry x="440" y="160" width="40" height="40" as="geometry" />
        </mxCell>
        <mxCell id="WGFTEza84kzCz2_i6lYA-48" value="" style="whiteSpace=wrap;html=1;aspect=fixed;" vertex="1" parent="1">
          <mxGeometry x="520" y="120" width="40" height="40" as="geometry" />
        </mxCell>
        <mxCell id="WGFTEza84kzCz2_i6lYA-49" value="" style="whiteSpace=wrap;html=1;aspect=fixed;" vertex="1" parent="1">
          <mxGeometry x="680" y="120" width="40" height="40" as="geometry" />
        </mxCell>
        <mxCell id="WGFTEza84kzCz2_i6lYA-50" value="" style="whiteSpace=wrap;html=1;aspect=fixed;" vertex="1" parent="1">
          <mxGeometry x="640" y="120" width="40" height="40" as="geometry" />
        </mxCell>
        <mxCell id="WGFTEza84kzCz2_i6lYA-51" value="COST = 1" style="text;html=1;strokeColor=none;fillColor=none;align=center;verticalAlign=middle;whiteSpace=wrap;rounded=0;" vertex="1" parent="1">
          <mxGeometry x="420" y="210" width="80" height="20" as="geometry" />
        </mxCell>
        <mxCell id="WGFTEza84kzCz2_i6lYA-52" value="" style="endArrow=classic;html=1;entryX=0.492;entryY=0.25;entryDx=0;entryDy=0;entryPerimeter=0;" edge="1" parent="1" target="WGFTEza84kzCz2_i6lYA-45">
          <mxGeometry width="50" height="50" relative="1" as="geometry">
            <mxPoint x="460" y="180" as="sourcePoint" />
            <mxPoint x="460" y="410" as="targetPoint" />
          </mxGeometry>
        </mxCell>
        <mxCell id="WGFTEza84kzCz2_i6lYA-53" value="" style="endArrow=classic;html=1;entryX=0.5;entryY=0.5;entryDx=0;entryDy=0;entryPerimeter=0;" edge="1" parent="1" target="WGFTEza84kzCz2_i6lYA-48">
          <mxGeometry width="50" height="50" relative="1" as="geometry">
            <mxPoint x="580" y="140" as="sourcePoint" />
            <mxPoint x="460" y="410" as="targetPoint" />
          </mxGeometry>
        </mxCell>
        <mxCell id="WGFTEza84kzCz2_i6lYA-55" value="" style="endArrow=classic;html=1;" edge="1" parent="1">
          <mxGeometry width="50" height="50" relative="1" as="geometry">
            <mxPoint x="660" y="139.75" as="sourcePoint" />
            <mxPoint x="700" y="139.75" as="targetPoint" />
          </mxGeometry>
        </mxCell>
        <mxCell id="WGFTEza84kzCz2_i6lYA-56" value="COST = 20" style="text;html=1;strokeColor=none;fillColor=none;align=center;verticalAlign=middle;whiteSpace=wrap;rounded=0;" vertex="1" parent="1">
          <mxGeometry x="520" y="210" width="80" height="20" as="geometry" />
        </mxCell>
        <mxCell id="WGFTEza84kzCz2_i6lYA-57" value="COST = 1" style="text;html=1;strokeColor=none;fillColor=none;align=center;verticalAlign=middle;whiteSpace=wrap;rounded=0;" vertex="1" parent="1">
          <mxGeometry x="640" y="210" width="80" height="20" as="geometry" />
        </mxCell>
        <mxCell id="WGFTEza84kzCz2_i6lYA-58" value="" style="shape=link;html=1;entryX=1;entryY=0.75;entryDx=0;entryDy=0;strokeColor=#000000;edgeStyle=orthogonalEdgeStyle;width=7;fillColor=#fff2cc;dashed=1;" edge="1" parent="1" target="WGFTEza84kzCz2_i6lYA-17">
          <mxGeometry width="50" height="50" relative="1" as="geometry">
            <mxPoint x="210" y="320" as="sourcePoint" />
            <mxPoint x="420" y="260" as="targetPoint" />
            <Array as="points">
              <mxPoint x="210" y="320" />
              <mxPoint x="210" y="230" />
            </Array>
          </mxGeometry>
        </mxCell>
        <mxCell id="WGFTEza84kzCz2_i6lYA-60" value="" style="shape=link;html=1;strokeColor=#97D077;exitX=0.75;exitY=1;exitDx=0;exitDy=0;entryX=1;entryY=0.25;entryDx=0;entryDy=0;edgeStyle=orthogonalEdgeStyle;width=3;" edge="1" parent="1" source="WGFTEza84kzCz2_i6lYA-33" target="WGFTEza84kzCz2_i6lYA-17">
          <mxGeometry width="50" height="50" relative="1" as="geometry">
            <mxPoint x="370" y="310" as="sourcePoint" />
            <mxPoint x="420" y="260" as="targetPoint" />
            <Array as="points">
              <mxPoint x="230" y="140" />
              <mxPoint x="340" y="140" />
              <mxPoint x="340" y="210" />
            </Array>
          </mxGeometry>
        </mxCell>
      </root>
    </mxGraphModel>
  </diagram>
  <diagram id="B0csN4MV7XZGGIxpWnN4" name="search-example">
    <mxGraphModel dx="1141" dy="674" grid="1" gridSize="10" guides="1" tooltips="1" connect="1" arrows="1" fold="1" page="1" pageScale="1" pageWidth="850" pageHeight="1100" math="0" shadow="0">
      <root>
        <mxCell id="GhC_Zz8aewY0h3e85FsZ-0" />
        <mxCell id="GhC_Zz8aewY0h3e85FsZ-1" parent="GhC_Zz8aewY0h3e85FsZ-0" />
        <mxCell id="ZK-D7Gfjk_ylwY2FKUO1-1" value="" style="whiteSpace=wrap;html=1;aspect=fixed;" vertex="1" parent="GhC_Zz8aewY0h3e85FsZ-1">
          <mxGeometry x="120" y="120" width="40" height="40" as="geometry" />
        </mxCell>
        <mxCell id="ZK-D7Gfjk_ylwY2FKUO1-2" value="" style="whiteSpace=wrap;html=1;aspect=fixed;" vertex="1" parent="GhC_Zz8aewY0h3e85FsZ-1">
          <mxGeometry x="200" y="120" width="40" height="40" as="geometry" />
        </mxCell>
        <mxCell id="ZK-D7Gfjk_ylwY2FKUO1-3" value="" style="whiteSpace=wrap;html=1;aspect=fixed;" vertex="1" parent="GhC_Zz8aewY0h3e85FsZ-1">
          <mxGeometry x="240" y="120" width="40" height="40" as="geometry" />
        </mxCell>
        <mxCell id="ZK-D7Gfjk_ylwY2FKUO1-4" value="" style="whiteSpace=wrap;html=1;aspect=fixed;fillColor=#eeeeee;strokeColor=#36393d;" vertex="1" parent="GhC_Zz8aewY0h3e85FsZ-1">
          <mxGeometry x="160" y="120" width="40" height="40" as="geometry" />
        </mxCell>
        <mxCell id="ZK-D7Gfjk_ylwY2FKUO1-5" value="" style="whiteSpace=wrap;html=1;aspect=fixed;" vertex="1" parent="GhC_Zz8aewY0h3e85FsZ-1">
          <mxGeometry x="280" y="120" width="40" height="40" as="geometry" />
        </mxCell>
        <mxCell id="ZK-D7Gfjk_ylwY2FKUO1-7" value="" style="whiteSpace=wrap;html=1;aspect=fixed;" vertex="1" parent="GhC_Zz8aewY0h3e85FsZ-1">
          <mxGeometry x="80" y="160" width="40" height="40" as="geometry" />
        </mxCell>
        <mxCell id="ZK-D7Gfjk_ylwY2FKUO1-8" value="" style="whiteSpace=wrap;html=1;aspect=fixed;" vertex="1" parent="GhC_Zz8aewY0h3e85FsZ-1">
          <mxGeometry x="120" y="160" width="40" height="40" as="geometry" />
        </mxCell>
        <mxCell id="ZK-D7Gfjk_ylwY2FKUO1-9" value="" style="whiteSpace=wrap;html=1;aspect=fixed;" vertex="1" parent="GhC_Zz8aewY0h3e85FsZ-1">
          <mxGeometry x="200" y="160" width="40" height="40" as="geometry" />
        </mxCell>
        <mxCell id="ZK-D7Gfjk_ylwY2FKUO1-10" value="" style="whiteSpace=wrap;html=1;aspect=fixed;" vertex="1" parent="GhC_Zz8aewY0h3e85FsZ-1">
          <mxGeometry x="240" y="160" width="40" height="40" as="geometry" />
        </mxCell>
        <mxCell id="ZK-D7Gfjk_ylwY2FKUO1-11" value="" style="whiteSpace=wrap;html=1;aspect=fixed;fillColor=#eeeeee;strokeColor=#36393d;" vertex="1" parent="GhC_Zz8aewY0h3e85FsZ-1">
          <mxGeometry x="160" y="160" width="40" height="40" as="geometry" />
        </mxCell>
        <mxCell id="ZK-D7Gfjk_ylwY2FKUO1-12" value="" style="whiteSpace=wrap;html=1;aspect=fixed;" vertex="1" parent="GhC_Zz8aewY0h3e85FsZ-1">
          <mxGeometry x="280" y="160" width="40" height="40" as="geometry" />
        </mxCell>
        <mxCell id="ZK-D7Gfjk_ylwY2FKUO1-14" value="G" style="whiteSpace=wrap;html=1;aspect=fixed;fillColor=#f8cecc;strokeColor=#b85450;" vertex="1" parent="GhC_Zz8aewY0h3e85FsZ-1">
          <mxGeometry x="280" y="280" width="40" height="40" as="geometry" />
        </mxCell>
        <mxCell id="ZK-D7Gfjk_ylwY2FKUO1-15" value="" style="whiteSpace=wrap;html=1;aspect=fixed;" vertex="1" parent="GhC_Zz8aewY0h3e85FsZ-1">
          <mxGeometry x="120" y="200" width="40" height="40" as="geometry" />
        </mxCell>
        <mxCell id="ZK-D7Gfjk_ylwY2FKUO1-16" value="" style="whiteSpace=wrap;html=1;aspect=fixed;" vertex="1" parent="GhC_Zz8aewY0h3e85FsZ-1">
          <mxGeometry x="200" y="200" width="40" height="40" as="geometry" />
        </mxCell>
        <mxCell id="ZK-D7Gfjk_ylwY2FKUO1-17" value="" style="whiteSpace=wrap;html=1;aspect=fixed;fillColor=#eeeeee;strokeColor=#36393d;" vertex="1" parent="GhC_Zz8aewY0h3e85FsZ-1">
          <mxGeometry x="240" y="200" width="40" height="40" as="geometry" />
        </mxCell>
        <mxCell id="ZK-D7Gfjk_ylwY2FKUO1-18" value="" style="whiteSpace=wrap;html=1;aspect=fixed;" vertex="1" parent="GhC_Zz8aewY0h3e85FsZ-1">
          <mxGeometry x="160" y="200" width="40" height="40" as="geometry" />
        </mxCell>
        <mxCell id="ZK-D7Gfjk_ylwY2FKUO1-19" value="" style="whiteSpace=wrap;html=1;aspect=fixed;" vertex="1" parent="GhC_Zz8aewY0h3e85FsZ-1">
          <mxGeometry x="280" y="200" width="40" height="40" as="geometry" />
        </mxCell>
        <mxCell id="ZK-D7Gfjk_ylwY2FKUO1-21" value="" style="whiteSpace=wrap;html=1;aspect=fixed;fillColor=#dae8fc;strokeColor=#6c8ebf;" vertex="1" parent="GhC_Zz8aewY0h3e85FsZ-1">
          <mxGeometry x="80" y="240" width="40" height="40" as="geometry" />
        </mxCell>
        <mxCell id="ZK-D7Gfjk_ylwY2FKUO1-22" value="" style="whiteSpace=wrap;html=1;aspect=fixed;" vertex="1" parent="GhC_Zz8aewY0h3e85FsZ-1">
          <mxGeometry x="120" y="240" width="40" height="40" as="geometry" />
        </mxCell>
        <mxCell id="ZK-D7Gfjk_ylwY2FKUO1-23" value="" style="whiteSpace=wrap;html=1;aspect=fixed;fillColor=#eeeeee;strokeColor=#36393d;" vertex="1" parent="GhC_Zz8aewY0h3e85FsZ-1">
          <mxGeometry x="200" y="240" width="40" height="40" as="geometry" />
        </mxCell>
        <mxCell id="ZK-D7Gfjk_ylwY2FKUO1-24" value="" style="whiteSpace=wrap;html=1;aspect=fixed;fillColor=#eeeeee;strokeColor=#36393d;" vertex="1" parent="GhC_Zz8aewY0h3e85FsZ-1">
          <mxGeometry x="240" y="240" width="40" height="40" as="geometry" />
        </mxCell>
        <mxCell id="ZK-D7Gfjk_ylwY2FKUO1-25" value="" style="whiteSpace=wrap;html=1;aspect=fixed;fillColor=#eeeeee;strokeColor=#36393d;" vertex="1" parent="GhC_Zz8aewY0h3e85FsZ-1">
          <mxGeometry x="160" y="240" width="40" height="40" as="geometry" />
        </mxCell>
        <mxCell id="ZK-D7Gfjk_ylwY2FKUO1-26" value="" style="whiteSpace=wrap;html=1;aspect=fixed;" vertex="1" parent="GhC_Zz8aewY0h3e85FsZ-1">
          <mxGeometry x="280" y="240" width="40" height="40" as="geometry" />
        </mxCell>
        <mxCell id="ZK-D7Gfjk_ylwY2FKUO1-28" value="" style="whiteSpace=wrap;html=1;aspect=fixed;" vertex="1" parent="GhC_Zz8aewY0h3e85FsZ-1">
          <mxGeometry x="80" y="280" width="40" height="40" as="geometry" />
        </mxCell>
        <mxCell id="ZK-D7Gfjk_ylwY2FKUO1-29" value="" style="whiteSpace=wrap;html=1;aspect=fixed;" vertex="1" parent="GhC_Zz8aewY0h3e85FsZ-1">
          <mxGeometry x="120" y="280" width="40" height="40" as="geometry" />
        </mxCell>
        <mxCell id="ZK-D7Gfjk_ylwY2FKUO1-30" value="" style="whiteSpace=wrap;html=1;aspect=fixed;" vertex="1" parent="GhC_Zz8aewY0h3e85FsZ-1">
          <mxGeometry x="200" y="280" width="40" height="40" as="geometry" />
        </mxCell>
        <mxCell id="ZK-D7Gfjk_ylwY2FKUO1-31" value="" style="whiteSpace=wrap;html=1;aspect=fixed;fillColor=#eeeeee;strokeColor=#36393d;" vertex="1" parent="GhC_Zz8aewY0h3e85FsZ-1">
          <mxGeometry x="240" y="280" width="40" height="40" as="geometry" />
        </mxCell>
        <mxCell id="ZK-D7Gfjk_ylwY2FKUO1-32" value="" style="whiteSpace=wrap;html=1;aspect=fixed;" vertex="1" parent="GhC_Zz8aewY0h3e85FsZ-1">
          <mxGeometry x="160" y="280" width="40" height="40" as="geometry" />
        </mxCell>
        <mxCell id="ZK-D7Gfjk_ylwY2FKUO1-33" value="" style="whiteSpace=wrap;html=1;aspect=fixed;" vertex="1" parent="GhC_Zz8aewY0h3e85FsZ-1">
          <mxGeometry x="80" y="200" width="40" height="40" as="geometry" />
        </mxCell>
        <mxCell id="ZK-D7Gfjk_ylwY2FKUO1-37" value="S" style="whiteSpace=wrap;html=1;aspect=fixed;fillColor=#d5e8d4;strokeColor=#82b366;" vertex="1" parent="GhC_Zz8aewY0h3e85FsZ-1">
          <mxGeometry x="80" y="120" width="40" height="40" as="geometry" />
        </mxCell>
        <mxCell id="ZK-D7Gfjk_ylwY2FKUO1-44" value="" style="whiteSpace=wrap;html=1;aspect=fixed;" vertex="1" parent="GhC_Zz8aewY0h3e85FsZ-1">
          <mxGeometry x="80" y="240" width="40" height="40" as="geometry" />
        </mxCell>
      </root>
    </mxGraphModel>
  </diagram>
</mxfile>
